<svg width="23" height="24" viewBox="0 0 23 24" fill="none" xmlns="http://www.w3.org/2000/svg">
<path d="M12.1082 6.09619L14.9543 6.09487C15.1682 6.09468 15.3414 5.92138 15.3414 5.70758C15.3414 5.49379 15.1679 5.32068 14.9543 5.32068L12.1082 5.32199C11.8942 5.32219 11.7211 5.49549 11.7211 5.70928C11.7211 5.92308 11.8946 6.09619 12.1082 6.09619Z" fill="white"/>
<path d="M4.07362 8.893L14.9543 8.89169C15.1682 8.89169 15.3414 8.71834 15.3414 8.50459C15.3414 8.29083 15.1679 8.11749 14.9543 8.11749L4.07362 8.11881C3.85967 8.11881 3.68652 8.29215 3.68652 8.50591C3.68652 8.71966 3.86002 8.893 4.07362 8.893Z" fill="white"/>
<path d="M4.07366 11.6297L14.185 11.6284C14.399 11.6284 14.5721 11.455 14.5721 11.2413C14.5721 11.0275 14.3986 10.8542 14.185 10.8542L4.07362 10.8555C3.85967 10.8555 3.68652 11.0288 3.68652 11.2426C3.68652 11.4564 3.86006 11.6297 4.07366 11.6297Z" fill="white"/>
<path d="M10.4543 13.592H4.07362C3.85967 13.592 3.68652 13.7654 3.68652 13.9791C3.68652 14.1929 3.85967 14.3662 4.07362 14.3662H10.4543C10.6682 14.3662 10.8414 14.1929 10.8414 13.9791C10.8414 13.7654 10.6682 13.592 10.4543 13.592Z" fill="white"/>
<path d="M6.66988 17.2441L4.07323 17.2455C3.85963 17.2456 3.68652 17.419 3.68652 17.6327C3.68652 17.8465 3.86002 18.0196 4.07362 18.0196L6.67027 18.0183C6.88387 18.0181 7.05697 17.8448 7.05697 17.631C7.05697 17.4173 6.88344 17.2441 6.66988 17.2441Z" fill="white"/>
<path d="M18.3807 14.4673C17.5974 14.2568 16.8312 14.477 16.2229 15.0854L14.2436 17.0636C14.0924 17.2148 14.0924 17.46 14.2436 17.6112C14.3948 17.7625 14.6397 17.7622 14.791 17.6114L16.7703 15.6329C17.2889 15.1146 17.8239 15.1199 18.1803 15.2151C18.7689 15.3728 19.2702 15.8739 19.4278 16.4622C19.5235 16.8197 19.5288 17.3546 19.0101 17.873L16.2203 20.6641C15.7833 21.1017 15.2072 20.924 14.8568 20.5738C14.6708 20.3878 14.5585 20.1631 14.5407 19.9408C14.5211 19.6983 14.6156 19.4709 14.8212 19.2651L17.4413 16.6448C17.5495 16.5365 17.6364 16.5442 17.6938 16.5596C17.8092 16.5906 17.9165 16.6994 17.9482 16.8187C17.9736 16.9128 17.9482 16.9933 17.8692 17.0725L15.9935 18.9483C15.8423 19.0995 15.8423 19.3445 15.9935 19.4957C16.1447 19.6469 16.3896 19.6469 16.5409 19.4957L18.4166 17.6199C18.6911 17.3455 18.7932 16.9805 18.696 16.6184C18.5924 16.2311 18.2775 15.9145 17.8942 15.8118C17.5358 15.7158 17.171 15.8204 16.8939 16.0974L14.2738 18.7177C13.8081 19.1832 13.7424 19.6737 13.7688 20.0032C13.8017 20.4084 13.9937 20.8054 14.3094 21.1212C14.6541 21.4661 15.1407 21.6937 15.6366 21.6937C16.0294 21.6937 16.4282 21.5512 16.7677 21.2115L19.5575 18.4206C20.1661 17.8123 20.3857 17.0457 20.1756 16.262C19.9487 15.4153 19.2274 14.694 18.3807 14.4673Z" fill="white"/>
<path d="M18.5625 12.2993V1.5499C18.5625 0.695381 17.8673 0 17.0126 0H3.20791C3.11354 0 2.99737 0.0456 2.92966 0.112452L0.114155 2.91058C0.0476903 2.97674 0 3.09046 0 3.18523V21.1185C0 21.973 0.695187 22.6684 1.5499 22.6684H13.2613C14.2858 23.4996 15.5892 24 17.0085 24C20.2927 24 22.965 21.3278 22.965 18.0433C22.965 15.2972 21.0944 12.9855 18.5625 12.2993ZM2.81555 1.32163V2.02243C2.81555 2.45017 2.46739 2.79813 2.03984 2.79813H1.32701L2.81555 1.32163ZM1.5499 21.8942C1.12235 21.8942 0.774194 21.5463 0.774194 21.1185V3.57232H2.03981C2.89452 3.57232 3.5897 2.87694 3.5897 2.02243V0.774194H17.0126C17.4401 0.774194 17.7883 1.12215 17.7883 1.5499V12.1437C17.5324 12.11 17.2734 12.0866 17.0085 12.0866C13.723 12.0866 11.0504 14.7588 11.0504 18.0433C11.0504 19.5113 11.5869 20.8547 12.4709 21.8942L1.5499 21.8942ZM17.0085 23.2258C14.1502 23.2258 11.8246 20.9009 11.8246 18.0433C11.8246 15.1856 14.1502 12.8607 17.0085 12.8607C19.8659 12.8607 22.1908 15.1856 22.1908 18.0433C22.1908 20.9009 19.8659 23.2258 17.0085 23.2258Z" fill="white"/>
</svg>
