<svg width="22" height="22" viewBox="0 0 22 22" fill="none" xmlns="http://www.w3.org/2000/svg">
<path d="M21.8053 9.30625C21.7174 8.91562 21.4733 8.55429 21.195 8.40293C21.1071 8.3541 20.5602 8.29551 19.9742 8.27109C18.9928 8.22715 18.8854 8.20761 18.5729 8.02695C18.0797 7.73886 17.9479 7.42636 17.943 6.58652C17.9381 4.97519 17.2692 3.47617 15.9459 2.12851C15.0035 1.1666 13.9489 0.517185 12.7477 0.150974C12.4596 0.0630834 11.8151 0.0337865 9.65687 0.00937241C6.26819 -0.0296901 5.51624 0.0386693 4.3639 0.497654C2.23987 1.3375 0.716435 3.12461 0.159794 5.40976C0.057255 5.83945 0.0328409 6.52793 0.00842685 10.483C-0.02087 15.4391 0.0133096 16.1666 0.320927 17.148C1.08265 19.5699 3.24573 21.3619 5.41858 21.7525C6.14124 21.8844 15.0524 21.9137 15.9655 21.7916C17.5524 21.5768 18.7975 20.9371 19.9645 19.7457C20.8092 18.8814 21.3366 17.9488 21.6832 16.7135C21.9225 15.8541 21.903 9.74082 21.8053 9.30625ZM6.07776 6.20078C6.45862 5.81504 6.56604 5.80039 8.94886 5.80039C11.0924 5.80039 11.1657 5.80527 11.4782 5.9664C11.9323 6.1959 12.1325 6.51816 12.1325 7.03574C12.1325 7.49961 11.9469 7.82676 11.5319 8.09043C11.3073 8.23203 11.1754 8.24179 9.07581 8.25156C7.78186 8.26133 6.74671 8.23203 6.59534 8.19297C5.78479 7.96347 5.48206 6.80136 6.07776 6.20078ZM15.443 15.9566L14.7155 16.0738L10.9313 16.1178C7.60608 16.1568 6.66858 16.0982 6.4928 16.0201C6.14612 15.8687 5.81897 15.4488 5.76526 15.0728C5.71155 14.7164 5.89222 14.2281 6.16565 13.9791C6.51233 13.6666 6.6637 13.6568 10.9166 13.652C15.2916 13.6471 15.2672 13.6471 15.6823 14.0328C16.2731 14.5846 16.1461 15.5562 15.443 15.9566Z" fill="white"/>
</svg>
