<svg width="36" height="36" viewBox="0 0 36 36" fill="none" xmlns="http://www.w3.org/2000/svg">
<path d="M18 0.5C22.6413 0.5 27.0921 2.34409 30.374 5.62598C33.6559 8.90786 35.5 13.3587 35.5 18C35.5 22.6413 33.6559 27.0921 30.374 30.374C27.0921 33.6559 22.6413 35.5 18 35.5C13.3587 35.5 8.90786 33.6559 5.62598 30.374C2.34409 27.0921 0.5 22.6413 0.5 18C0.5 13.3587 2.34409 8.90786 5.62598 5.62598C8.90786 2.34409 13.3587 0.5 18 0.5ZM19.1484 7.85156C18.5172 7.22036 17.4828 7.22036 16.8516 7.85156L8.98047 15.7227C8.50973 16.1832 8.36915 16.8867 8.62305 17.4961C8.87577 18.1026 9.46433 18.5 10.125 18.5H14.125V24.75C14.125 26.2707 15.3543 27.5 16.875 27.5H19.125C20.6457 27.5 21.875 26.2707 21.875 24.75V18.5H25.875C26.5347 18.5 27.1332 18.0961 27.3789 17.4922C27.622 16.8945 27.4916 16.1947 27.0234 15.7266L19.1484 7.85156Z" fill="#246729" stroke="white"/>
</svg>
