<svg width="24" height="24" viewBox="0 0 24 24" fill="none" xmlns="http://www.w3.org/2000/svg">
<path d="M13.9614 6.52029H13.9383C13.7246 6.52029 13.5627 6.69365 13.5627 6.90742C13.5627 7.12118 13.7476 7.29454 13.9614 7.29454C14.1752 7.29454 14.3485 7.12118 14.3485 6.90742C14.3485 6.69365 14.1752 6.52029 13.9614 6.52029Z" fill="white"/>
<path d="M17.1031 6.52029H17.0816C16.8678 6.52029 16.7052 6.69365 16.7052 6.90742C16.7052 7.12118 16.8893 7.29454 17.1031 7.29454C17.3169 7.29454 17.4902 7.12118 17.4902 6.90742C17.4902 6.69365 17.3169 6.52029 17.1031 6.52029Z" fill="white"/>
<path d="M20.2464 6.52029H20.2234C20.0096 6.52029 19.8478 6.69365 19.8478 6.90742C19.8478 7.12118 20.0326 7.29454 20.2464 7.29454C20.4602 7.29454 20.6336 7.12118 20.6336 6.90742C20.6336 6.69365 20.4602 6.52029 20.2464 6.52029Z" fill="white"/>
<path d="M17.1096 17.3074C15.1164 16.1833 14.5194 16.2751 12.9995 17.1344C12.2196 17.6527 11.2805 17.3367 9.64842 16.0075C9.32803 15.7464 9.0061 15.4553 8.69269 15.1434C8.37947 14.8289 8.08859 14.507 7.8277 14.1864C6.59735 12.6767 6.26238 11.2989 6.662 10.8836C7.83963 9.61732 7.57236 8.57752 6.5329 6.7347C5.90685 5.55046 5.21936 4.37171 4.30432 4.10123C3.64083 3.90635 2.65564 4.41689 2.36228 4.61161C1.6077 5.11421 0.891104 6.00319 0.492059 6.9319C-0.241924 8.6405 -0.0472406 10.6997 0.379793 12.0573C1.08126 14.2828 2.76489 16.86 4.88388 18.9514C6.976 21.0713 9.55315 22.7545 11.7778 23.4541C12.4806 23.6758 13.3714 23.8352 14.305 23.8352C15.1736 23.8352 16.0792 23.6972 16.9035 23.3431C17.8322 22.9434 18.7206 22.2268 19.2219 21.4731C19.417 21.1807 19.9294 20.1957 19.7323 19.5294C19.4633 18.616 18.2846 17.9283 17.1096 17.3074ZM16.7386 17.9869C17.4555 18.3659 18.7902 19.0715 18.9896 19.7488C19.0305 19.8868 18.9808 20.1382 18.889 20.3996L13.6516 17.6552C14.6367 17.1098 15.0356 17.0264 16.7386 17.9869ZM4.08528 4.84384C4.76368 5.04441 5.46932 6.37928 5.85342 7.10572C6.86819 8.90467 6.86497 9.47235 6.21244 10.2251L3.38719 4.9616C3.60243 4.88201 3.81492 4.82952 3.96748 4.82952C4.0125 4.82948 4.05219 4.83405 4.08528 4.84384ZM16.5977 22.6318C15.0812 23.2836 13.179 23.0845 12.0103 22.7155C9.89981 22.0519 7.44101 20.4406 5.4332 18.4058C5.43189 18.4045 5.43076 18.4034 5.42941 18.402C3.39551 16.3949 1.78373 13.9359 1.11834 11.8247C0.750695 10.6558 0.552411 8.75308 1.20359 7.2373C1.53036 6.4768 2.09873 5.75497 2.70171 5.32182L5.76888 11.0364C5.60001 11.9552 6.1246 13.3219 7.2274 14.6754C7.5043 15.0157 7.8128 15.357 8.1453 15.6908C8.47799 16.0222 8.81916 16.3307 9.1594 16.6078C10.3548 17.5815 11.61 18.3987 12.7855 18.0756L18.5423 21.092C18.1136 21.7103 17.3756 22.2971 16.5977 22.6318Z" fill="white"/>
<path d="M23.2106 3.69779C21.4411 0.325228 17.2569 -0.979217 13.883 0.788884C10.5104 2.55892 9.20539 6.74351 10.9741 10.1169C11.1023 10.3612 11.2485 10.6027 11.4105 10.8374L10.3648 12.6297C10.2919 12.7547 10.2947 12.9101 10.3724 13.0322C10.4497 13.1545 10.589 13.2223 10.7332 13.2104L13.7334 12.9452C14.7823 13.5285 15.9361 13.8211 17.0916 13.8211C18.19 13.8211 19.29 13.5565 20.302 13.0255C23.6748 11.2557 24.9796 7.07133 23.2106 3.69779ZM19.9423 12.34C18.0659 13.3244 15.8496 13.2774 14.0134 12.2141C13.9544 12.1799 13.8873 12.1619 13.8195 12.1619C13.8081 12.1619 13.7968 12.1625 13.7854 12.1634L11.4109 12.3732L12.2057 11.0109C12.2838 10.8769 12.2745 10.7093 12.1819 10.5849C11.9833 10.3178 11.8077 10.0394 11.6599 9.75733C10.0893 6.76205 11.2478 3.04642 14.2427 1.47448C17.2382 -0.0965027 20.9534 1.06297 22.525 4.05751C24.0958 7.05298 22.937 10.7684 19.9423 12.34Z" fill="white"/>
</svg>
