<svg width="40" height="39" viewBox="0 0 40 39" fill="none" xmlns="http://www.w3.org/2000/svg">
<path fill-rule="evenodd" clip-rule="evenodd" d="M15 6.66667C15 4.82571 16.4924 3.33333 18.3333 3.33333H22.2222C23.5773 3.33333 25 4.63576 25 6.66667H28.3333C28.3333 3.17473 25.7764 0 22.2222 0H18.3333C14.6514 0 11.6667 2.98478 11.6667 6.66667H1.66667L0 8.33333V36.6667L1.66667 38.3333H38.3333L40 36.6667V8.33333L38.3333 6.66667H15ZM3.33333 28.3333V10H6.66667C6.66667 11.841 5.17429 13.3333 3.33333 13.3333V16.6667C7.01522 16.6667 10 13.6819 10 10H30C30 13.6819 32.9847 16.6667 36.6667 16.6667V28.3333C32.9847 28.3333 30 31.318 30 35H10C10 31.318 7.01522 28.3333 3.33333 28.3333ZM3.33333 31.6667V35H6.66667C6.66667 33.1591 5.17429 31.6667 3.33333 31.6667ZM36.6667 13.3333C34.8258 13.3333 33.3333 11.841 33.3333 10H36.6667V13.3333ZM33.3333 35H36.6667V31.6667C34.8258 31.6667 33.3333 33.1591 33.3333 35ZM20.8553 20.2173L26.2847 18.7627L24.83 13.3333L19.4007 14.7881L20.8553 20.2173ZM18.3333 25C18.3333 26.8409 16.8409 28.3333 15 28.3333C13.159 28.3333 11.6667 26.8409 11.6667 25C11.6667 23.1591 13.159 21.6667 15 21.6667C16.8409 21.6667 18.3333 23.1591 18.3333 25ZM25.2611 31.9553L29.988 25.8056L22.2984 24.7869L25.2611 31.9553Z" fill="#2D2D2D"/>
<path fill-rule="evenodd" clip-rule="evenodd" d="M15 6.66667C15 4.82571 16.4924 3.33333 18.3333 3.33333H22.2222C23.5773 3.33333 25 4.63576 25 6.66667H28.3333C28.3333 3.17473 25.7764 0 22.2222 0H18.3333C14.6514 0 11.6667 2.98478 11.6667 6.66667H1.66667L0 8.33333V36.6667L1.66667 38.3333H38.3333L40 36.6667V8.33333L38.3333 6.66667H15ZM3.33333 28.3333V10H6.66667C6.66667 11.841 5.17429 13.3333 3.33333 13.3333V16.6667C7.01522 16.6667 10 13.6819 10 10H30C30 13.6819 32.9847 16.6667 36.6667 16.6667V28.3333C32.9847 28.3333 30 31.318 30 35H10C10 31.318 7.01522 28.3333 3.33333 28.3333ZM3.33333 31.6667V35H6.66667C6.66667 33.1591 5.17429 31.6667 3.33333 31.6667ZM36.6667 13.3333C34.8258 13.3333 33.3333 11.841 33.3333 10H36.6667V13.3333ZM33.3333 35H36.6667V31.6667C34.8258 31.6667 33.3333 33.1591 33.3333 35ZM20.8553 20.2173L26.2847 18.7627L24.83 13.3333L19.4007 14.7881L20.8553 20.2173ZM18.3333 25C18.3333 26.8409 16.8409 28.3333 15 28.3333C13.159 28.3333 11.6667 26.8409 11.6667 25C11.6667 23.1591 13.159 21.6667 15 21.6667C16.8409 21.6667 18.3333 23.1591 18.3333 25ZM25.2611 31.9553L29.988 25.8056L22.2984 24.7869L25.2611 31.9553Z" fill="#246729"/>
</svg>
