<svg width="40" height="39" viewBox="0 0 40 39" fill="none" xmlns="http://www.w3.org/2000/svg">
<path fill-rule="evenodd" clip-rule="evenodd" d="M15 6.78261C15 4.90964 16.4924 3.3913 18.3333 3.3913H22.2222C23.5773 3.3913 25 4.71638 25 6.78261H28.3333C28.3333 3.22995 25.7764 0 22.2222 0H18.3333C14.6514 0 11.6667 3.03669 11.6667 6.78261H1.66667L0 8.47826V37.3043L1.66667 39H38.3333L40 37.3043V8.47826L38.3333 6.78261H15ZM3.33333 28.8261V10.1739H6.66667C6.66667 12.0469 5.17429 13.5652 3.33333 13.5652V16.9565C7.01522 16.9565 10 13.9198 10 10.1739H30C30 13.9198 32.9847 16.9565 36.6667 16.9565V28.8261C32.9847 28.8261 30 31.8627 30 35.6087H10C10 31.8627 7.01522 28.8261 3.33333 28.8261ZM3.33333 32.2174V35.6087H6.66667C6.66667 33.7358 5.17429 32.2174 3.33333 32.2174ZM36.6667 13.5652C34.8258 13.5652 33.3333 12.0469 33.3333 10.1739H36.6667V13.5652ZM33.3333 35.6087H36.6667V32.2174C34.8258 32.2174 33.3333 33.7358 33.3333 35.6087ZM20.8553 20.5689L26.2847 19.089L24.83 13.5652L19.4007 15.0453L20.8553 20.5689ZM18.3333 25.4348C18.3333 27.3077 16.8409 28.8261 15 28.8261C13.159 28.8261 11.6667 27.3077 11.6667 25.4348C11.6667 23.5619 13.159 22.0435 15 22.0435C16.8409 22.0435 18.3333 23.5619 18.3333 25.4348ZM25.2611 32.5111L29.988 26.2543L22.2984 25.218L25.2611 32.5111Z" fill="#2D2D2D"/>
<path fill-rule="evenodd" clip-rule="evenodd" d="M15 6.78261C15 4.90964 16.4924 3.3913 18.3333 3.3913H22.2222C23.5773 3.3913 25 4.71638 25 6.78261H28.3333C28.3333 3.22995 25.7764 0 22.2222 0H18.3333C14.6514 0 11.6667 3.03669 11.6667 6.78261H1.66667L0 8.47826V37.3043L1.66667 39H38.3333L40 37.3043V8.47826L38.3333 6.78261H15ZM3.33333 28.8261V10.1739H6.66667C6.66667 12.0469 5.17429 13.5652 3.33333 13.5652V16.9565C7.01522 16.9565 10 13.9198 10 10.1739H30C30 13.9198 32.9847 16.9565 36.6667 16.9565V28.8261C32.9847 28.8261 30 31.8627 30 35.6087H10C10 31.8627 7.01522 28.8261 3.33333 28.8261ZM3.33333 32.2174V35.6087H6.66667C6.66667 33.7358 5.17429 32.2174 3.33333 32.2174ZM36.6667 13.5652C34.8258 13.5652 33.3333 12.0469 33.3333 10.1739H36.6667V13.5652ZM33.3333 35.6087H36.6667V32.2174C34.8258 32.2174 33.3333 33.7358 33.3333 35.6087ZM20.8553 20.5689L26.2847 19.089L24.83 13.5652L19.4007 15.0453L20.8553 20.5689ZM18.3333 25.4348C18.3333 27.3077 16.8409 28.8261 15 28.8261C13.159 28.8261 11.6667 27.3077 11.6667 25.4348C11.6667 23.5619 13.159 22.0435 15 22.0435C16.8409 22.0435 18.3333 23.5619 18.3333 25.4348ZM25.2611 32.5111L29.988 26.2543L22.2984 25.218L25.2611 32.5111Z" fill="#246729"/>
</svg>
