<svg width="25" height="24" viewBox="0 0 25 24" fill="none" xmlns="http://www.w3.org/2000/svg">
<path d="M21.7586 0.719602C22.8331 0.0480426 23.5382 -0.153517 23.8068 0.115106C24.5459 0.854373 23.8067 2.29706 21.5901 4.48036L19.0382 7.03214L19.4077 11.33L19.9124 10.8603C20.3153 10.4241 20.7511 10.4235 21.0874 10.7587C21.4903 11.1616 21.3227 11.7322 20.517 12.538L19.7105 13.3769L20.1142 16.2656L20.6846 15.6611C21.0541 15.2583 21.4567 15.2578 21.8263 15.5927C22.2292 15.9957 22.1627 16.4998 21.6244 17.0371L20.4161 18.2461C20.8866 21.4686 20.953 23.2822 20.5837 23.6514L20.4445 23.751C20.2918 23.8486 20.0961 23.9375 19.8438 23.9883L19.6252 24C19.4494 23.9987 19.293 23.968 19.1725 23.8994L19.1049 23.8535C18.9706 23.6857 18.7687 23.0808 18.5678 22.04C18.3619 21.0999 17.8992 19.5937 17.1116 17.5224L16.7539 16.5996C15.7805 14.0146 15.0743 12.5708 14.7391 12.2011C14.6048 12.0668 14.403 12.0668 14.1687 12.2011L14.0521 12.2665C13.7155 12.487 12.9263 13.1703 11.7511 14.3164C10.4081 15.6593 9.16633 16.7341 7.99094 17.5732C7.95763 17.7752 8.05852 18.4469 8.22614 19.5547C8.39366 20.6618 8.46119 21.4009 8.42801 21.6699L8.39273 21.7754C8.29005 22.0321 8.03662 22.3633 7.65481 22.7451L7.49017 22.9023C7.33595 23.0409 7.21015 23.1225 7.08446 23.1475L7.00019 23.0547C6.56364 22.5318 5.91986 21.1563 5.06963 18.9843C2.55117 17.8766 1.1753 17.1699 0.906685 16.9013C0.906876 16.8006 0.982283 16.6618 1.11934 16.5L1.27614 16.331C1.71219 15.895 2.08166 15.6263 2.38351 15.5918C2.65212 15.5241 3.35721 15.6251 4.46596 15.8271C5.29648 15.9528 5.88195 16.0228 6.22208 16.0498L6.4808 16.0625C7.28666 14.8537 8.79752 13.0745 11.1484 10.7236C11.778 10.0305 11.9949 9.57427 11.8256 9.32609L11.7864 9.27922C11.4499 8.90956 9.9722 8.23794 7.4206 7.26456C5.15854 6.41276 3.51273 5.81754 2.41683 5.54678L1.98074 5.45107C0.906588 5.21583 0.301332 5.04833 0.166802 4.88076C-0.000733114 4.74651 -0.0350101 4.47757 0.032545 4.1415C0.0658238 3.80548 0.200199 3.57089 0.368677 3.40223C0.704992 3.06592 2.51845 3.09967 5.77521 3.56923L6.95021 2.36024C7.48741 1.85638 7.99178 1.79033 8.39469 2.19324C8.76399 2.52946 8.73076 2.93225 8.36137 3.30067L7.75575 3.87099L10.6447 4.27431L11.4503 3.50184C12.2561 2.69597 12.827 2.52859 13.2299 2.93153C13.5991 3.30096 13.5659 3.67036 13.1623 4.10634L13.1633 4.11122L12.6596 4.61513L16.9568 4.98427L19.5419 2.3993C19.8945 2.04677 20.5049 1.53974 21.3716 0.968626L21.7586 0.719602ZM22.965 1.18738C22.7812 1.2767 22.5573 1.40128 22.2918 1.56726C21.5214 2.04878 20.949 2.48387 20.569 2.81336L20.2534 3.10536L17.337 6.02139L16.8705 5.98037L10.4301 5.42666L10.581 5.27431L10.5056 5.26455L5.55178 4.57314L5.57432 4.55165C3.98942 4.32446 2.78439 4.20591 1.9484 4.18251C1.56188 4.1717 1.28074 4.18255 1.08994 4.204C1.34221 4.27709 1.69496 4.36401 2.16694 4.46767L2.64223 4.57216C3.48927 4.7806 4.60685 5.1595 5.98983 5.66494L7.77535 6.32901L7.77927 6.33096L8.69457 6.68448C9.56189 7.02573 10.285 7.32851 10.8554 7.59073C11.2345 7.76503 11.5608 7.92846 11.8236 8.07999C12.0494 8.2102 12.3037 8.37525 12.4959 8.57414L12.4979 8.57316C12.5051 8.58039 12.5115 8.58835 12.5184 8.59562C12.5222 8.59968 12.5265 8.60326 12.5302 8.60734C13.0471 9.15752 12.8908 9.83996 12.7272 10.2128C12.5555 10.6037 12.2477 11.0031 11.8922 11.3945L11.8766 11.412L11.8589 11.4296C9.52434 13.7642 8.06809 15.4891 7.31672 16.6162L7.01881 17.0625H6.4808C6.15733 17.0625 5.41085 16.9822 4.31505 16.8164L4.28565 16.8105C3.73355 16.7099 3.30533 16.6397 2.98914 16.6015C2.83113 16.5825 2.71735 16.5732 2.64027 16.5712C2.61563 16.5706 2.59866 16.5709 2.58833 16.5712L2.56481 16.5781L2.54031 16.58C2.52554 16.5872 2.49485 16.6032 2.44721 16.6357C2.44143 16.6396 2.43556 16.6442 2.42957 16.6484C2.48318 16.6759 2.53863 16.7059 2.59715 16.7353C3.10007 16.9884 3.76338 17.3025 4.5914 17.6757L5.47534 18.0693L5.85459 18.2363L6.00453 18.6211C6.45392 19.769 6.8381 20.6741 7.15796 21.3379C7.20973 21.4453 7.26103 21.5429 7.30692 21.6328C7.32705 21.6071 7.34803 21.5847 7.36474 21.5615C7.39712 21.5166 7.4169 21.4806 7.43138 21.456C7.43113 21.4441 7.43187 21.4305 7.43138 21.416C7.42798 21.3179 7.41863 21.1864 7.40296 21.0205C7.3716 20.6886 7.31555 20.2469 7.23342 19.7041C7.15033 19.1549 7.08133 18.6959 7.03742 18.3496C7.01549 18.1765 6.99776 18.0169 6.98843 17.8798C6.9807 17.7664 6.97142 17.5855 7.00019 17.4111L7.0678 17.0019L7.4059 16.7607C8.52523 15.9616 9.72561 14.9253 11.0406 13.6103L11.0495 13.6015L11.5365 13.1318C12.0014 12.6886 12.3972 12.328 12.7174 12.0507C12.93 11.8665 13.1169 11.7131 13.273 11.5947C13.4022 11.4966 13.5867 11.3616 13.7718 11.2822C14.1749 11.0852 14.8045 10.9597 15.3359 11.3915L15.4505 11.4951L15.4839 11.5302C15.7689 11.8445 16.0864 12.4366 16.4178 13.1484C16.7704 13.9058 17.1979 14.9331 17.6878 16.2334L18.0485 17.165C18.7317 18.9617 19.1832 20.3632 19.4371 21.3613L19.5478 21.8271L19.5508 21.8389L19.5527 21.8515C19.6371 22.2887 19.7215 22.6307 19.7938 22.8828C19.8136 22.6926 19.8234 22.4204 19.8114 22.0517C19.7843 21.2164 19.6583 20.0208 19.4302 18.4502L19.4087 18.4736L18.7168 13.5146L18.6952 13.3652L18.5845 13.4697L17.9985 6.65518L18.3277 6.32705L20.8796 3.77431L20.8845 3.76942L21.2726 3.3788C22.1292 2.49661 22.6547 1.80945 22.9121 1.30359C22.9329 1.2626 22.9489 1.22318 22.965 1.18738Z" fill="white"/>
</svg>
