<svg width="30" height="23" viewBox="0 0 30 23" fill="none" xmlns="http://www.w3.org/2000/svg">
<path d="M28.125 0L28.1734 0.000604248C29.1866 0.0262833 30 0.855635 30 1.87498C30 2.89433 29.1866 3.72368 28.1734 3.74936L28.125 3.74997H1.87498C0.839448 3.74997 0 2.91052 0 1.87498C0 0.839448 0.839448 0 1.87498 0H28.125Z" fill="#246729"/>
<path d="M28.125 18.75L28.1734 18.7506C29.1866 18.7763 30 19.6056 30 20.625C30 21.6443 29.1866 22.4737 28.1734 22.4994L28.125 22.5H1.87498C0.839448 22.5 0 21.6605 0 20.625C0 19.5895 0.839448 18.75 1.87498 18.75H28.125Z" fill="#246729"/>
<path d="M28.125 9.375L28.1734 9.37561C29.1866 9.40129 30 10.2306 30 11.25C30 12.2693 29.1866 13.0987 28.1734 13.1244L28.125 13.125H1.87498C0.839448 13.125 0 12.2855 0 11.25C0 10.2145 0.839448 9.375 1.87498 9.375H28.125Z" fill="#246729"/>
</svg>
