<svg width="30" height="23" viewBox="0 0 30 23" fill="none" xmlns="http://www.w3.org/2000/svg">
<path d="M28.8262 0C29.1544 2.62515e-05 29.3454 0.1394 29.4834 0.387695C29.6402 0.670135 29.7197 1.09404 29.7197 1.58594V21.7461C29.7197 22.2425 29.6377 22.5539 29.5117 22.7324C29.4113 22.8745 29.2356 23 28.8262 23H1.46582C0.663753 23 0.351488 22.8321 0.21582 22.6836C0.0734163 22.5277 1.30763e-06 22.2621 0 21.7461V1.58594C3.18991e-05 0.738928 0.285151 0.406243 0.575195 0.239258C0.925495 0.0376512 1.41057 0 1.94629 0H28.8262ZM0.919922 0.919922V22.0801H28.7998V0.919922H0.919922Z" fill="white"/>
<path d="M12.1744 6.70001H4.58461C3.51997 6.70001 3.33997 7.18001 3.33997 8.22113V18.3011C3.33997 18.831 3.57421 19.18 4.10461 19.18H12.1748C12.7048 19.18 12.9404 19.3111 12.9404 18.7811V8.22113C12.94 7.69073 13.1502 6.70001 12.1744 6.70001ZM11.98 18.22H4.29997V7.66001H11.98V18.22Z" fill="white"/>
<path d="M14.3003 7.66001H20.0603C20.3258 7.66001 20.5403 7.44545 20.5403 7.18001C20.5403 6.91457 20.3258 6.70001 20.0603 6.70001H14.3003C14.0349 6.70001 13.8203 6.91457 13.8203 7.18001C13.8203 7.44545 14.0349 7.66001 14.3003 7.66001Z" fill="white"/>
<path d="M26.3004 6.70001H21.9804C21.7149 6.70001 21.5004 6.91457 21.5004 7.18001C21.5004 7.44545 21.7149 7.66001 21.9804 7.66001H26.3004C26.5658 7.66001 26.7804 7.44545 26.7804 7.18001C26.7804 6.91457 26.5658 6.70001 26.3004 6.70001Z" fill="white"/>
<path d="M14.3003 10.06H17.1803C17.4458 10.06 17.6603 9.84545 17.6603 9.58001C17.6603 9.31457 17.4458 9.10001 17.1803 9.10001H14.3003C14.0349 9.10001 13.8203 9.31457 13.8203 9.58001C13.8203 9.84545 14.0349 10.06 14.3003 10.06Z" fill="white"/>
<path d="M5.18044 3.34H5.66044C5.92588 3.34 6.14044 3.12544 6.14044 2.86C6.14044 2.59456 5.92588 2.38 5.66044 2.38H5.18044C4.915 2.38 4.70044 2.59456 4.70044 2.86C4.70044 3.12544 4.915 3.34 5.18044 3.34Z" fill="white"/>
<path d="M23.9003 3.34H24.3803C24.6457 3.34 24.8603 3.12544 24.8603 2.86C24.8603 2.59456 24.6457 2.38 24.3803 2.38H23.9003C23.6348 2.38 23.4203 2.59456 23.4203 2.86C23.4203 3.12544 23.6348 3.34 23.9003 3.34Z" fill="white"/>
<path d="M22.4604 9.10001H19.1004C18.8349 9.10001 18.6204 9.31457 18.6204 9.58001C18.6204 9.84545 18.8349 10.06 19.1004 10.06H22.4604C22.7258 10.06 22.9404 9.84545 22.9404 9.58001C22.9404 9.31457 22.7258 9.10001 22.4604 9.10001Z" fill="white"/>
<path d="M14.3003 12.46H19.1003C19.3658 12.46 19.5803 12.2454 19.5803 11.98C19.5803 11.7146 19.3658 11.5 19.1003 11.5H14.3003C14.0349 11.5 13.8203 11.7146 13.8203 11.98C13.8203 12.2454 14.0349 12.46 14.3003 12.46Z" fill="white"/>
<path d="M20.5403 11.98C20.5403 12.2454 20.7548 12.46 21.0203 12.46H24.3803C24.6457 12.46 24.8603 12.2454 24.8603 11.98C24.8603 11.7146 24.6457 11.5 24.3803 11.5H21.0203C20.7548 11.5 20.5403 11.7146 20.5403 11.98Z" fill="white"/>
<path d="M26.3003 9.10001H24.3803C24.1148 9.10001 23.9003 9.31457 23.9003 9.58001C23.9003 9.84545 24.1148 10.06 24.3803 10.06H26.3003C26.5657 10.06 26.7803 9.84545 26.7803 9.58001C26.7803 9.31457 26.5657 9.10001 26.3003 9.10001Z" fill="white"/>
<path d="M14.3003 16.3H18.1403C18.4058 16.3 18.6203 16.0854 18.6203 15.82C18.6203 15.5546 18.4058 15.34 18.1403 15.34H14.3003C14.0349 15.34 13.8203 15.5546 13.8203 15.82C13.8203 16.0854 14.0349 16.3 14.3003 16.3Z" fill="white"/>
<path d="M26.3003 15.34H20.0603C19.7949 15.34 19.5803 15.5546 19.5803 15.82C19.5803 16.0854 19.7949 16.3 20.0603 16.3H26.3003C26.5658 16.3 26.7803 16.0854 26.7803 15.82C26.7803 15.5546 26.5658 15.34 26.3003 15.34Z" fill="white"/>
<path d="M21.5003 17.74H14.3003C14.0349 17.74 13.8203 17.9546 13.8203 18.22C13.8203 18.4854 14.0349 18.7 14.3003 18.7H21.5003C21.7658 18.7 21.9803 18.4854 21.9803 18.22C21.9803 17.9546 21.7658 17.74 21.5003 17.74Z" fill="white"/>
<path d="M26.3003 17.74H23.4203C23.1549 17.74 22.9403 17.9546 22.9403 18.22C22.9403 18.4854 23.1549 18.7 23.4203 18.7H26.3003C26.5657 18.7 26.7803 18.4854 26.7803 18.22C26.7803 17.9546 26.5657 17.74 26.3003 17.74Z" fill="white"/>
</svg>
