<svg width="13" height="14" viewBox="0 0 13 14" fill="none" xmlns="http://www.w3.org/2000/svg">
<g clip-path="url(#clip0_2007_309)">
<path d="M6.5 1.71875C7.90067 1.71875 9.24398 2.27517 10.2344 3.26559C11.2248 4.25602 11.7812 5.59933 11.7812 7C11.7812 8.40067 11.2248 9.74398 10.2344 10.7344C9.24398 11.7248 7.90067 12.2812 6.5 12.2812C5.09933 12.2812 3.75602 11.7248 2.76559 10.7344C1.77517 9.74398 1.21875 8.40067 1.21875 7C1.21875 5.59933 1.77517 4.25602 2.76559 3.26559C3.75602 2.27517 5.09933 1.71875 6.5 1.71875ZM6.5 13.5C8.22391 13.5 9.87721 12.8152 11.0962 11.5962C12.3152 10.3772 13 8.72391 13 7C13 5.27609 12.3152 3.62279 11.0962 2.40381C9.87721 1.18482 8.22391 0.5 6.5 0.5C4.77609 0.5 3.12279 1.18482 1.90381 2.40381C0.68482 3.62279 0 5.27609 0 7C0 8.72391 0.68482 10.3772 1.90381 11.5962C3.12279 12.8152 4.77609 13.5 6.5 13.5ZM9.36914 5.80664C9.60781 5.56797 9.60781 5.18203 9.36914 4.9459C9.13047 4.70977 8.74453 4.70723 8.5084 4.9459L5.69004 7.76426L4.49668 6.5709C4.25801 6.33223 3.87207 6.33223 3.63594 6.5709C3.3998 6.80957 3.39727 7.19551 3.63594 7.43164L5.26094 9.05664C5.49961 9.29531 5.88555 9.29531 6.12168 9.05664L9.36914 5.80664Z" fill="#0463FA"/>
</g>
<defs>
<clipPath id="clip0_2007_309">
<rect width="13" height="13" fill="white" transform="translate(0 0.5)"/>
</clipPath>
</defs>
</svg>
