<svg width="23" height="20" viewBox="0 0 23 20" fill="none" xmlns="http://www.w3.org/2000/svg">
<path d="M11.2011 18.5673C17.3868 18.5673 22.4 14.412 22.4 9.28364C22.4 4.15532 17.3868 0 11.2011 0C5.01551 0 0.00227275 4.15532 0.00227275 9.28364C0.00227275 11.2966 0.776569 13.1578 2.08894 14.6798C2.00582 15.7733 1.59024 16.7463 1.15278 17.4872C0.91218 17.8978 0.667205 18.2281 0.487848 18.4512C0.395983 18.5628 0.32599 18.6476 0.273495 18.7056C0.247248 18.7324 0.22975 18.7547 0.216626 18.7681L0.203502 18.7815C0.00227275 18.9868 -0.0545965 19.2903 0.0547674 19.5581C0.164131 19.8259 0.417856 20 0.702202 20C1.9577 20 3.22195 19.6028 4.27184 19.1386C5.27361 18.6923 6.12665 18.1611 6.64722 17.7728C8.03833 18.2861 9.57818 18.5717 11.2011 18.5717V18.5673ZM9.80128 5.71301C9.80128 5.32024 10.1162 4.99888 10.5012 4.99888H11.9011C12.286 4.99888 12.601 5.32024 12.601 5.71301V7.85539H14.7008C15.0857 7.85539 15.4007 8.17675 15.4007 8.56952V9.99777C15.4007 10.3905 15.0857 10.7119 14.7008 10.7119H12.601V12.8543C12.601 13.247 12.286 13.5684 11.9011 13.5684H10.5012C10.1162 13.5684 9.80128 13.247 9.80128 12.8543V10.7119H7.70149C7.31653 10.7119 7.00156 10.3905 7.00156 9.99777V8.56952C7.00156 8.17675 7.31653 7.85539 7.70149 7.85539H9.80128V5.71301Z" fill="#1B2C51"/>
</svg>
