<svg width="22" height="25" viewBox="0 0 22 25" fill="none" xmlns="http://www.w3.org/2000/svg">
<path d="M10.9053 12.5001C12.558 12.5001 14.1431 11.874 15.3117 10.7596C16.4804 9.6452 17.1369 8.13376 17.1369 6.55776C17.1369 4.98177 16.4804 3.47033 15.3117 2.35593C14.1431 1.24154 12.558 0.615479 10.9053 0.615479C9.25259 0.615479 7.66756 1.24154 6.4989 2.35593C5.33025 3.47033 4.67371 4.98177 4.67371 6.55776C4.67371 8.13376 5.33025 9.6452 6.4989 10.7596C7.66756 11.874 9.25259 12.5001 10.9053 12.5001ZM6.23161 15.0627C2.62896 16.0701 0 19.2455 0 23.0058C0 23.7672 0.647503 24.3846 1.44593 24.3846H20.3647C21.1631 24.3846 21.8106 23.7672 21.8106 23.0058C21.8106 19.2455 19.1817 16.0701 15.579 15.0627V17.421C16.9227 17.7506 17.9159 18.9159 17.9159 20.2993V22.1563C17.9159 22.5648 17.5653 22.8991 17.1369 22.8991H16.358C15.9296 22.8991 15.579 22.5648 15.579 22.1563C15.579 21.7477 15.9296 21.4135 16.358 21.4135V20.2993C16.358 19.4776 15.6618 18.8137 14.8001 18.8137C13.9384 18.8137 13.2422 19.4776 13.2422 20.2993V21.4135C13.6706 21.4135 14.0211 21.7477 14.0211 22.1563C14.0211 22.5648 13.6706 22.8991 13.2422 22.8991H12.4632C12.0348 22.8991 11.6843 22.5648 11.6843 22.1563V20.2993C11.6843 18.9159 12.6774 17.7506 14.0211 17.421V14.7702C13.729 14.7423 13.432 14.7284 13.1302 14.7284H8.68044C8.37859 14.7284 8.08162 14.7423 7.78951 14.7702V17.8063C8.91412 18.1267 9.73689 19.1201 9.73689 20.2993C9.73689 21.7338 8.51491 22.8991 7.01056 22.8991C5.50621 22.8991 4.28423 21.7338 4.28423 20.2993C4.28423 19.1201 5.107 18.1267 6.23161 17.8063V15.0627ZM7.01056 21.4135C7.32045 21.4135 7.61764 21.2961 7.83676 21.0871C8.05589 20.8782 8.17899 20.5948 8.17899 20.2993C8.17899 20.0038 8.05589 19.7204 7.83676 19.5115C7.61764 19.3025 7.32045 19.1851 7.01056 19.1851C6.70067 19.1851 6.40348 19.3025 6.18436 19.5115C5.96523 19.7204 5.84213 20.0038 5.84213 20.2993C5.84213 20.5948 5.96523 20.8782 6.18436 21.0871C6.40348 21.2961 6.70067 21.4135 7.01056 21.4135Z" fill="#1B2C51"/>
</svg>
