<svg width="19" height="19" viewBox="0 0 19 19" fill="none" xmlns="http://www.w3.org/2000/svg">
<g clip-path="url(#clip0_27_182)">
<path d="M1.73438 2.3125C0.776855 2.3125 0 3.08936 0 4.04688C0 4.59248 0.256543 5.10557 0.69375 5.43437L8.55625 11.3313C8.96816 11.6384 9.53184 11.6384 9.94375 11.3313L17.8062 5.43437C18.2435 5.10557 18.5 4.59248 18.5 4.04688C18.5 3.08936 17.7231 2.3125 16.7656 2.3125H1.73438ZM0 6.35938V13.875C0 15.1505 1.03701 16.1875 2.3125 16.1875H16.1875C17.463 16.1875 18.5 15.1505 18.5 13.875V6.35938L10.6375 12.2563C9.81367 12.8741 8.68633 12.8741 7.8625 12.2563L0 6.35938Z" fill="white"/>
</g>
<defs>
<clipPath id="clip0_27_182">
<rect width="18.5" height="18.5" fill="white"/>
</clipPath>
</defs>
</svg>
