<svg width="50" height="43" viewBox="0 0 50 43" fill="none" xmlns="http://www.w3.org/2000/svg">
<path d="M15 4.80066C15 2.72433 16.6797 1.03976 18.75 1.03976H31.25C33.3203 1.03976 35 2.72433 35 4.80066V41.156H28.75V34.8879C28.75 32.8115 27.0703 31.127 25 31.127C22.9297 31.127 21.25 32.8115 21.25 34.8879V41.156H15V4.80066ZM3.75 8.56156H12.5V41.156H3.75C1.67969 41.156 0 39.4715 0 37.3951V26.1124H6.25C6.9375 26.1124 7.5 25.5483 7.5 24.8588C7.5 24.1693 6.9375 23.6052 6.25 23.6052H0V18.5906H6.25C6.9375 18.5906 7.5 18.0265 7.5 17.337C7.5 16.6475 6.9375 16.0834 6.25 16.0834H0V12.3225C0 10.2461 1.67969 8.56156 3.75 8.56156ZM46.25 8.56156C48.3203 8.56156 50 10.2461 50 12.3225V16.0834H43.75C43.0625 16.0834 42.5 16.6475 42.5 17.337C42.5 18.0265 43.0625 18.5906 43.75 18.5906H50V23.6052H43.75C43.0625 23.6052 42.5 24.1693 42.5 24.8588C42.5 25.5483 43.0625 26.1124 43.75 26.1124H50V37.3951C50 39.4715 48.3203 41.156 46.25 41.156H37.5V8.56156H46.25ZM24.375 6.0543C23.6875 6.0543 23.125 6.61843 23.125 7.30793V9.18838H21.25C20.5625 9.18838 20 9.75251 20 10.442V11.6956C20 12.3851 20.5625 12.9493 21.25 12.9493H23.125V14.8297C23.125 15.5192 23.6875 16.0834 24.375 16.0834H25.625C26.3125 16.0834 26.875 15.5192 26.875 14.8297V12.9493H28.75C29.4375 12.9493 30 12.3851 30 11.6956V10.442C30 9.75251 29.4375 9.18838 28.75 9.18838H26.875V7.30793C26.875 6.61843 26.3125 6.0543 25.625 6.0543H24.375Z" fill="#1B2C51"/>
</svg>
