<svg width="50" height="41" viewBox="0 0 50 41" fill="none" xmlns="http://www.w3.org/2000/svg">
<path d="M15 3.83341C15 1.75708 16.6797 0.0725098 18.75 0.0725098H31.25C33.3203 0.0725098 35 1.75708 35 3.83341V40.1888H28.75V33.9206C28.75 31.8443 27.0703 30.1597 25 30.1597C22.9297 30.1597 21.25 31.8443 21.25 33.9206V40.1888H15V3.83341ZM3.75 7.59431H12.5V40.1888H3.75C1.67969 40.1888 0 38.5042 0 36.4279V25.1452H6.25C6.9375 25.1452 7.5 24.581 7.5 23.8916C7.5 23.2021 6.9375 22.6379 6.25 22.6379H0V17.6234H6.25C6.9375 17.6234 7.5 17.0592 7.5 16.3697C7.5 15.6803 6.9375 15.1161 6.25 15.1161H0V11.3552C0 9.27888 1.67969 7.59431 3.75 7.59431ZM46.25 7.59431C48.3203 7.59431 50 9.27888 50 11.3552V15.1161H43.75C43.0625 15.1161 42.5 15.6803 42.5 16.3697C42.5 17.0592 43.0625 17.6234 43.75 17.6234H50V22.6379H43.75C43.0625 22.6379 42.5 23.2021 42.5 23.8916C42.5 24.581 43.0625 25.1452 43.75 25.1452H50V36.4279C50 38.5042 48.3203 40.1888 46.25 40.1888H37.5V7.59431H46.25ZM24.375 5.08704C23.6875 5.08704 23.125 5.65118 23.125 6.34068V8.22113H21.25C20.5625 8.22113 20 8.78526 20 9.47476V10.7284C20 11.4179 20.5625 11.982 21.25 11.982H23.125V13.8625C23.125 14.552 23.6875 15.1161 24.375 15.1161H25.625C26.3125 15.1161 26.875 14.552 26.875 13.8625V11.982H28.75C29.4375 11.982 30 11.4179 30 10.7284V9.47476C30 8.78526 29.4375 8.22113 28.75 8.22113H26.875V6.34068C26.875 5.65118 26.3125 5.08704 25.625 5.08704H24.375Z" fill="white"/>
</svg>
