<svg width="18" height="18" viewBox="0 0 18 18" fill="none" xmlns="http://www.w3.org/2000/svg">
<path d="M5.79727 0.864843C5.52656 0.210937 4.81289 -0.13711 4.13086 0.049218L1.03711 0.892968C0.425391 1.06172 0 1.61719 0 2.25C0 10.9477 7.05234 18 15.75 18C16.3828 18 16.9383 17.5746 17.107 16.9629L17.9508 13.8691C18.1371 13.1871 17.7891 12.4734 17.1352 12.2027L13.7602 10.7965C13.1871 10.5574 12.5227 10.7227 12.1324 11.2043L10.7121 12.9375C8.23711 11.7668 6.2332 9.76289 5.0625 7.28789L6.7957 5.87109C7.27734 5.47734 7.44258 4.81641 7.20352 4.24336L5.79727 0.868359V0.864843Z" fill="white"/>
</svg>
