<svg width="22" height="20" viewBox="0 0 22 20" fill="none" xmlns="http://www.w3.org/2000/svg">
<path d="M10.9977 2.89498C6.50607 2.89498 2.80182 6.10026 2.25994 10.2421C2.65788 10.0887 3.08969 9.99988 3.5469 9.99988C4.66876 9.99988 5.57895 10.8678 5.57895 11.9376V17.1048C5.57895 18.1746 4.66876 19.0425 3.5469 19.0425C1.67572 19.0425 0.160156 17.5973 0.160156 15.813V15.1671V13.2294V11.2917C0.160156 5.58354 5.01167 0.957275 10.9977 0.957275C16.9838 0.957275 21.8353 5.58354 21.8353 11.2917V13.2294V15.1671V15.813C21.8353 17.5973 20.3198 19.0425 18.4486 19.0425C17.3267 19.0425 16.4165 18.1746 16.4165 17.1048V11.9376C16.4165 10.8678 17.3267 9.99988 18.4486 9.99988C18.9058 9.99988 19.3376 10.0847 19.7355 10.2421C19.1937 6.10026 15.4894 2.89498 10.9977 2.89498Z" fill="#1B2C51"/>
</svg>
