<svg width="32" height="25" viewBox="0 0 32 25" fill="none" xmlns="http://www.w3.org/2000/svg">
<path d="M30.6729 0C31.0219 6.70188e-05 31.2253 0.148136 31.3721 0.412109C31.5389 0.712637 31.623 1.1641 31.623 1.6875V23.1387C31.623 23.6668 31.5364 23.9985 31.4023 24.1885C31.2955 24.3396 31.1084 24.4736 30.6729 24.4736H1.55957C0.706236 24.4736 0.373842 24.2947 0.229492 24.1367C0.0779911 23.9708 1.39128e-06 23.6877 0 23.1387V1.6875C4.04539e-05 0.786254 0.303685 0.432563 0.612305 0.254883C0.985039 0.0403954 1.50129 0 2.07129 0H30.6729ZM0.978516 0.978516V23.4941H30.6445V0.978516H0.978516Z" fill="#2D2D2D"/>
<path d="M12.9543 7.12918H4.87832C3.74549 7.12918 3.55396 7.63993 3.55396 8.74774V19.4734C3.55396 20.0373 3.8032 20.4086 4.36758 20.4086H12.9548C13.5186 20.4086 13.7694 20.5481 13.7694 19.9842V8.74774C13.7689 8.18337 13.9926 7.12918 12.9543 7.12918ZM12.7474 19.3871H4.57545V8.15068H12.7474V19.3871Z" fill="#2D2D2D"/>
<path d="M15.2163 8.15068H21.3453C21.6277 8.15068 21.856 7.92238 21.856 7.63993C21.856 7.35749 21.6277 7.12918 21.3453 7.12918H15.2163C14.9339 7.12918 14.7056 7.35749 14.7056 7.63993C14.7056 7.92238 14.9339 8.15068 15.2163 8.15068Z" fill="#2D2D2D"/>
<path d="M27.9852 7.12918H23.3884C23.106 7.12918 22.8777 7.35749 22.8777 7.63993C22.8777 7.92238 23.106 8.15068 23.3884 8.15068H27.9852C28.2676 8.15068 28.4959 7.92238 28.4959 7.63993C28.4959 7.35749 28.2676 7.12918 27.9852 7.12918Z" fill="#2D2D2D"/>
<path d="M15.2163 10.7044H18.2808C18.5632 10.7044 18.7915 10.4761 18.7915 10.1937C18.7915 9.91123 18.5632 9.68293 18.2808 9.68293H15.2163C14.9339 9.68293 14.7056 9.91123 14.7056 10.1937C14.7056 10.4761 14.9339 10.7044 15.2163 10.7044Z" fill="#2D2D2D"/>
<path d="M5.51221 3.55395H6.02296C6.3054 3.55395 6.53371 3.32565 6.53371 3.0432C6.53371 2.76076 6.3054 2.53246 6.02296 2.53246H5.51221C5.22977 2.53246 5.00146 2.76076 5.00146 3.0432C5.00146 3.32565 5.22977 3.55395 5.51221 3.55395Z" fill="#2D2D2D"/>
<path d="M25.4314 3.55395H25.9421C26.2246 3.55395 26.4529 3.32565 26.4529 3.0432C26.4529 2.76076 26.2246 2.53246 25.9421 2.53246H25.4314C25.149 2.53246 24.9207 2.76076 24.9207 3.0432C24.9207 3.32565 25.149 3.55395 25.4314 3.55395Z" fill="#2D2D2D"/>
<path d="M23.899 9.68293H20.3237C20.0413 9.68293 19.813 9.91123 19.813 10.1937C19.813 10.4761 20.0413 10.7044 20.3237 10.7044H23.899C24.1814 10.7044 24.4097 10.4761 24.4097 10.1937C24.4097 9.91123 24.1814 9.68293 23.899 9.68293Z" fill="#2D2D2D"/>
<path d="M15.2163 13.2582H20.3238C20.6062 13.2582 20.8345 13.0299 20.8345 12.7474C20.8345 12.465 20.6062 12.2367 20.3238 12.2367H15.2163C14.9339 12.2367 14.7056 12.465 14.7056 12.7474C14.7056 13.0299 14.9339 13.2582 15.2163 13.2582Z" fill="#2D2D2D"/>
<path d="M21.8562 12.7474C21.8562 13.0299 22.0845 13.2582 22.3669 13.2582H25.9422C26.2246 13.2582 26.4529 13.0299 26.4529 12.7474C26.4529 12.465 26.2246 12.2367 25.9422 12.2367H22.3669C22.0845 12.2367 21.8562 12.465 21.8562 12.7474Z" fill="#2D2D2D"/>
<path d="M27.9851 9.68293H25.9421C25.6597 9.68293 25.4314 9.91123 25.4314 10.1937C25.4314 10.4761 25.6597 10.7044 25.9421 10.7044H27.9851C28.2676 10.7044 28.4959 10.4761 28.4959 10.1937C28.4959 9.91123 28.2676 9.68293 27.9851 9.68293Z" fill="#2D2D2D"/>
<path d="M15.2163 17.3441H19.3023C19.5847 17.3441 19.813 17.1158 19.813 16.8334C19.813 16.5509 19.5847 16.3226 19.3023 16.3226H15.2163C14.9339 16.3226 14.7056 16.5509 14.7056 16.8334C14.7056 17.1158 14.9339 17.3441 15.2163 17.3441Z" fill="#2D2D2D"/>
<path d="M27.9852 16.3226H21.3455C21.063 16.3226 20.8347 16.5509 20.8347 16.8334C20.8347 17.1158 21.063 17.3441 21.3455 17.3441H27.9852C28.2676 17.3441 28.4959 17.1158 28.4959 16.8334C28.4959 16.5509 28.2676 16.3226 27.9852 16.3226Z" fill="#2D2D2D"/>
<path d="M22.8775 18.8764H15.2163C14.9339 18.8764 14.7056 19.1047 14.7056 19.3871C14.7056 19.6696 14.9339 19.8979 15.2163 19.8979H22.8775C23.16 19.8979 23.3883 19.6696 23.3883 19.3871C23.3883 19.1047 23.16 18.8764 22.8775 18.8764Z" fill="#2D2D2D"/>
<path d="M27.9851 18.8764H24.9207C24.6382 18.8764 24.4099 19.1047 24.4099 19.3871C24.4099 19.6696 24.6382 19.8979 24.9207 19.8979H27.9851C28.2676 19.8979 28.4959 19.6696 28.4959 19.3871C28.4959 19.1047 28.2676 18.8764 27.9851 18.8764Z" fill="#2D2D2D"/>
</svg>
