<svg width="26" height="26" viewBox="0 0 26 26" fill="none" xmlns="http://www.w3.org/2000/svg">
<path d="M23.1121 0.764363C24.2534 0.051031 25.0023 -0.163067 25.2876 0.122266C26.0728 0.907517 25.2875 2.43995 22.9331 4.75905L20.2225 7.46955L20.6149 12.0348L21.151 11.5358C21.5789 11.0725 22.0418 11.0719 22.3991 11.4279C22.827 11.8559 22.6491 12.462 21.7932 13.3179L20.9365 14.209L21.3654 17.2773L21.9712 16.6352C22.3637 16.2074 22.7914 16.2068 23.1839 16.5626C23.6119 16.9906 23.5413 17.5262 22.9695 18.0968L21.686 19.381C22.1858 22.8041 22.2563 24.7304 21.864 25.1225L21.7162 25.2283C21.554 25.3321 21.3461 25.4265 21.0781 25.4804L20.846 25.4929C20.6592 25.4915 20.493 25.4589 20.3651 25.386L20.2932 25.3373C20.1506 25.159 19.9362 24.5165 19.7228 23.411C19.5041 22.4123 19.0125 20.8125 18.176 18.6124L17.796 17.6321C16.7621 14.8863 16.012 13.3527 15.6559 12.96C15.5132 12.8174 15.2989 12.8174 15.0501 12.96L14.9262 13.0295C14.5686 13.2638 13.7304 13.9895 12.4821 15.2069C11.0556 16.6334 9.7365 17.775 8.488 18.6663C8.45262 18.8809 8.55978 19.5943 8.73783 20.771C8.91577 21.9471 8.9875 22.7321 8.95226 23.0178L8.91478 23.1299C8.80572 23.4025 8.53651 23.7544 8.13096 24.1599L7.95608 24.3269C7.79226 24.4741 7.65864 24.5608 7.52514 24.5873L7.43562 24.4887C6.97191 23.9334 6.28809 22.4722 5.38497 20.1652C2.70986 18.9886 1.24841 18.238 0.963083 17.9526C0.963286 17.8456 1.04338 17.6982 1.18897 17.5263L1.35552 17.3468C1.81869 16.8837 2.21115 16.5982 2.53177 16.5616C2.81709 16.4897 3.56604 16.597 4.74376 16.8116C5.62593 16.9451 6.24782 17.0195 6.60911 17.0481L6.88392 17.0616C7.73991 15.7776 9.34475 13.8878 11.8419 11.3906C12.5107 10.6544 12.741 10.1698 12.5612 9.9062L12.5195 9.85641C12.1621 9.46376 10.5925 8.75036 7.88218 7.71643C5.47942 6.81165 3.73123 6.1794 2.56716 5.8918L2.10395 5.79014C0.96298 5.54027 0.320075 5.36235 0.177178 5.18435C-0.000778716 5.04176 -0.0371879 4.75609 0.0345694 4.39911C0.0699183 4.04219 0.212652 3.79301 0.39161 3.61386C0.748844 3.25662 2.6751 3.29248 6.13445 3.79124L7.38253 2.50705C7.95315 1.97185 8.4889 1.90169 8.91687 2.32967C9.30913 2.6868 9.27384 3.11464 8.88147 3.50598L8.23818 4.11177L11.3069 4.54018L12.1625 3.71967C13.0185 2.86367 13.6248 2.68588 14.0528 3.11388C14.445 3.50629 14.4097 3.89866 13.981 4.36176L13.9821 4.36695L13.447 4.9022L18.0115 5.29431L20.7575 2.54854C21.132 2.17408 21.7803 1.63552 22.7009 1.02888L23.1121 0.764363ZM24.3935 1.26124C24.1983 1.35611 23.9605 1.48844 23.6784 1.66475C22.8601 2.17622 22.2521 2.63837 21.8484 2.98836L21.5132 3.29852L18.4154 6.39593L17.9199 6.35237L11.0789 5.76421L11.2392 5.60239L11.159 5.59202L5.89711 4.8576L5.92106 4.83478C4.23758 4.59345 2.95759 4.46752 2.0696 4.44267C1.65903 4.43119 1.36041 4.44271 1.15774 4.46549C1.4257 4.54314 1.80039 4.63546 2.30173 4.74557L2.80658 4.85656C3.70631 5.07797 4.8934 5.48043 6.36241 6.01731L8.259 6.72269L8.26316 6.72476L9.23539 7.10027C10.1567 7.46274 10.9248 7.78437 11.5307 8.0629C11.9333 8.24803 12.28 8.42163 12.5591 8.58259C12.7989 8.72089 13.069 8.89622 13.2732 9.10747L13.2753 9.10643C13.2829 9.11411 13.2897 9.12256 13.2971 9.13029C13.3011 9.1346 13.3057 9.1384 13.3096 9.14274C13.8587 9.72714 13.6926 10.452 13.5188 10.8481C13.3365 11.2633 13.0096 11.6876 12.632 12.1032L12.6153 12.1219L12.5966 12.1406C10.1168 14.6204 8.56995 16.4526 7.77184 17.6497L7.45539 18.1238H6.88392C6.54033 18.1238 5.74742 18.0385 4.58345 17.8624L4.55223 17.8562C3.96579 17.7493 3.51093 17.6747 3.17507 17.6342C3.00723 17.6139 2.88638 17.6041 2.8045 17.602C2.77833 17.6014 2.76031 17.6017 2.74933 17.602L2.72434 17.6093L2.69832 17.6114C2.68264 17.619 2.65004 17.636 2.59943 17.6705C2.59329 17.6747 2.58706 17.6795 2.5807 17.684C2.63764 17.7132 2.69654 17.745 2.7587 17.7763C3.2929 18.0452 3.99748 18.3788 4.877 18.7752L5.81592 19.1933L6.21876 19.3706L6.37803 19.7793C6.85538 20.9987 7.26345 21.96 7.60321 22.6651C7.6582 22.7793 7.71269 22.883 7.76143 22.9784C7.78281 22.9511 7.8051 22.9273 7.82284 22.9027C7.85724 22.855 7.87825 22.8167 7.89363 22.7907C7.89337 22.778 7.89416 22.7635 7.89363 22.7481C7.89003 22.6439 7.88009 22.5043 7.86344 22.328C7.83013 21.9755 7.7706 21.5063 7.68336 20.9297C7.5951 20.3464 7.5218 19.8588 7.47517 19.491C7.45187 19.3071 7.43304 19.1376 7.42312 18.992C7.41492 18.8716 7.40507 18.6794 7.43562 18.4941L7.50744 18.0595L7.86656 17.8033C9.05552 16.9545 10.3306 15.8537 11.7274 14.4569L11.7368 14.4476L12.2541 13.9486C12.7479 13.4779 13.1684 13.0948 13.5084 12.8003C13.7343 12.6047 13.9328 12.4417 14.0986 12.3159C14.2359 12.2117 14.4319 12.0683 14.6285 11.9839C15.0566 11.7747 15.7254 11.6414 16.2898 12.1001L16.4116 12.2101L16.447 12.2474C16.7498 12.5813 17.087 13.2102 17.439 13.9662C17.8136 14.7708 18.2677 15.862 18.7881 17.2431L19.1711 18.2327C19.8969 20.1412 20.3764 21.6299 20.6461 22.69L20.7637 23.1848L20.7669 23.1973L20.769 23.2108C20.8586 23.6752 20.9483 24.0384 21.025 24.3062C21.0461 24.1041 21.0565 23.815 21.0438 23.4234C21.015 22.5361 20.8811 21.2661 20.6388 19.5978L20.6159 19.6227L19.881 14.3552L19.8581 14.1965L19.7405 14.3075L19.118 7.06915L19.4678 6.72061L22.1784 4.00908L22.1836 4.00389L22.5958 3.58897C23.5056 2.65191 24.0638 1.922 24.3373 1.38468C24.3594 1.34114 24.3764 1.29927 24.3935 1.26124Z" fill="#2D2D2D"/>
</svg>
