<svg width="26" height="26" viewBox="0 0 26 26" fill="none" xmlns="http://www.w3.org/2000/svg">
<path d="M14.8558 6.93798H14.8313C14.6038 6.93798 14.4316 7.12243 14.4316 7.3499C14.4316 7.57736 14.6283 7.76182 14.8558 7.76182C15.0833 7.76182 15.2678 7.57736 15.2678 7.3499C15.2678 7.12243 15.0833 6.93798 14.8558 6.93798Z" fill="#2D2D2D"/>
<path d="M18.1988 6.93798H18.1759C17.9484 6.93798 17.7754 7.12243 17.7754 7.3499C17.7754 7.57736 17.9713 7.76182 18.1988 7.76182C18.4262 7.76182 18.6107 7.57736 18.6107 7.3499C18.6107 7.12243 18.4263 6.93798 18.1988 6.93798Z" fill="#2D2D2D"/>
<path d="M21.5433 6.93798H21.5188C21.2913 6.93798 21.1191 7.12243 21.1191 7.3499C21.1191 7.57736 21.3158 7.76182 21.5433 7.76182C21.7708 7.76182 21.9553 7.57736 21.9553 7.3499C21.9553 7.12243 21.7708 6.93798 21.5433 6.93798Z" fill="#2D2D2D"/>
<path d="M18.2056 18.416C16.0847 17.2199 15.4495 17.3177 13.8322 18.232C13.0023 18.7835 12.0031 18.4472 10.2665 17.0328C9.92557 16.7551 9.58301 16.4453 9.24952 16.1135C8.91624 15.7788 8.60672 15.4363 8.32913 15.0951C7.01997 13.4887 6.66353 12.0226 7.08876 11.5808C8.34182 10.2334 8.05743 9.12695 6.95138 7.16609C6.28523 5.90599 5.5537 4.65173 4.58004 4.36392C3.87405 4.15656 2.82576 4.6998 2.51361 4.907C1.71069 5.4418 0.948186 6.38773 0.523579 7.37592C-0.257421 9.19397 -0.0502668 11.3851 0.404122 12.8296C1.15052 15.1977 2.942 17.94 5.19673 20.1653C7.42287 22.421 10.1651 24.2121 12.5322 24.9565C13.28 25.1924 14.228 25.362 15.2214 25.362C16.1456 25.362 17.1092 25.2152 17.9863 24.8384C18.9745 24.4131 19.9198 23.6505 20.4533 22.8486C20.6608 22.5375 21.2061 21.4894 20.9963 20.7804C20.7101 19.8084 19.4559 19.0768 18.2056 18.416ZM17.8108 19.1391C18.5737 19.5423 19.9939 20.2932 20.2061 21.0138C20.2496 21.1607 20.1967 21.4282 20.099 21.7063L14.5261 18.7862C15.5743 18.2058 15.9987 18.117 17.8108 19.1391ZM4.34698 5.15411C5.06883 5.36753 5.81967 6.78791 6.22838 7.56088C7.30815 9.47507 7.30473 10.0791 6.6104 10.8801L3.60416 5.27942C3.83319 5.19473 4.05929 5.13887 4.22163 5.13887C4.26954 5.13883 4.31176 5.14369 4.34698 5.15411ZM17.6609 24.0815C16.0472 24.775 14.0232 24.5632 12.7796 24.1706C10.534 23.4644 7.91766 21.75 5.78124 19.5848C5.77984 19.5834 5.77865 19.5822 5.77721 19.5808C3.61302 17.4451 1.89799 14.8286 1.18998 12.5822C0.798783 11.3384 0.587797 9.31376 1.28069 7.70089C1.62839 6.89167 2.23317 6.12361 2.87478 5.66271L6.13842 11.7434C5.95874 12.721 6.51693 14.1753 7.69037 15.6155C7.98501 15.9775 8.31327 16.3407 8.66707 16.6959C9.02107 17.0485 9.3841 17.3768 9.74613 17.6717C11.0181 18.7078 12.3537 19.5773 13.6045 19.2334L19.73 22.4431C19.2739 23.101 18.4886 23.7254 17.6609 24.0815Z" fill="#2D2D2D"/>
<path d="M24.6974 3.93467C22.8146 0.346061 18.3623 -1.04194 14.7723 0.839418C11.1837 2.72284 9.79511 7.17549 11.6771 10.7649C11.8135 11.025 11.9691 11.2818 12.1415 11.5316L11.0288 13.4388C10.9512 13.5717 10.9542 13.737 11.0368 13.867C11.1191 13.9971 11.2674 14.0693 11.4208 14.0566L14.6132 13.7744C15.7293 14.3951 16.957 14.7065 18.1865 14.7065C19.3553 14.7065 20.5257 14.4249 21.6025 13.8599C25.1914 11.9767 26.5798 7.5243 24.6974 3.93467ZM21.2198 13.1304C19.2232 14.178 16.8649 14.1279 14.9111 12.9965C14.8484 12.9601 14.777 12.941 14.7047 12.941C14.6927 12.941 14.6806 12.9416 14.6685 12.9426L12.1419 13.1658L12.9877 11.7163C13.0707 11.5737 13.0609 11.3953 12.9623 11.2629C12.7509 10.9787 12.5641 10.6824 12.4068 10.3824C10.7356 7.19522 11.9683 3.24157 15.1551 1.56893C18.3425 -0.102684 22.2957 1.13106 23.9679 4.31742C25.6393 7.50478 24.4064 11.4582 21.2198 13.1304Z" fill="#2D2D2D"/>
</svg>
