<svg width="28" height="24" viewBox="0 0 28 24" fill="none" xmlns="http://www.w3.org/2000/svg">
<path fill-rule="evenodd" clip-rule="evenodd" d="M23.4335 17.8717C21.8074 17.394 20.059 17.037 18.2188 16.806C18.4693 15.5063 18.6026 14.1442 18.6451 12.75H25.4427C25.2907 14.6407 24.5714 16.3905 23.4335 17.8717ZM16.5027 22.1693C17.0682 20.9625 17.531 19.6583 17.8868 18.2843C19.4136 18.4838 20.8775 18.7785 22.2642 19.1655C20.7323 20.6078 18.7436 21.669 16.5027 22.1693ZM14.4112 22.4632C14.1377 22.4805 13.8652 22.5 13.5866 22.5C13.3081 22.5 13.0364 22.4805 12.7621 22.4632C12.0395 21.1342 11.4544 19.6553 11.0213 18.0855C11.8654 18.0203 12.7205 17.982 13.5866 17.982C14.4528 17.982 15.3079 18.0203 16.1528 18.0855C15.7189 19.6553 15.1338 21.1342 14.4112 22.4632ZM4.90902 19.1655C6.29571 18.7785 7.75967 18.4838 9.28646 18.2843C9.64226 19.6583 10.105 20.9625 10.6706 22.1693C8.42965 21.669 6.44176 20.6078 4.90902 19.1655ZM3.73972 17.8717C2.60184 16.3905 1.88259 14.6407 1.73059 12.75H8.52815C8.57061 14.1442 8.70393 15.5063 8.95443 16.806C7.1143 17.037 5.36587 17.394 3.73972 17.8717ZM3.73972 6.12827C5.36587 6.60602 7.1143 6.96374 8.95443 7.19398C8.70393 8.49374 8.57061 9.85575 8.52815 11.25H1.73059C1.88259 9.35925 2.60184 7.60952 3.73972 6.12827ZM10.6706 1.83073C10.105 3.03748 9.64226 4.34173 9.28646 5.71573C7.75967 5.51698 6.29571 5.22149 4.90902 4.83449C6.44176 3.39224 8.42965 2.33098 10.6706 1.83073ZM12.7621 1.53676C13.0364 1.52026 13.3081 1.5 13.5866 1.5C13.8652 1.5 14.1377 1.52026 14.4112 1.53676C15.1338 2.86576 15.7189 4.34549 16.1528 5.91449C15.3079 5.97974 14.4528 6.01799 13.5866 6.01799C12.7205 6.01799 11.8654 5.97974 11.0213 5.91449C11.4544 4.34549 12.0395 2.86576 12.7621 1.53676ZM16.9442 12.75C16.8984 14.0708 16.7625 15.3698 16.5069 16.617C15.5507 16.5435 14.5785 16.5 13.5866 16.5C12.5948 16.5 11.6225 16.5435 10.6672 16.617C10.4107 15.3698 10.2749 14.0708 10.2299 12.75H16.9442ZM10.2299 11.25C10.2749 9.92925 10.4107 8.63025 10.6672 7.383C11.6225 7.4565 12.5948 7.5 13.5866 7.5C14.5785 7.5 15.5507 7.4565 16.5061 7.383C16.7625 8.63025 16.8984 9.92925 16.9442 11.25H10.2299ZM22.2642 4.83449C20.8775 5.22149 19.4136 5.51698 17.8868 5.71573C17.531 4.34173 17.0682 3.03748 16.5027 1.83073C18.7436 2.33098 20.7323 3.39224 22.2642 4.83449ZM23.4335 6.12827C24.5714 7.60952 25.2907 9.35925 25.4427 11.25H18.6451C18.6026 9.85575 18.4693 8.49374 18.2188 7.19398C20.059 6.96374 21.8074 6.60602 23.4335 6.12827ZM13.5866 0C6.08341 0 0 5.37225 0 12C0 18.6278 6.08341 24 13.5866 24C21.0898 24 27.1733 18.6278 27.1733 12C27.1733 5.37225 21.0898 0 13.5866 0Z" fill="#2D2D2D"/>
</svg>
