<svg width="25" height="26" viewBox="0 0 25 26" fill="none" xmlns="http://www.w3.org/2000/svg">
<path d="M12.8836 6.48671L15.912 6.4853C16.1397 6.4851 16.3239 6.30069 16.3239 6.07321C16.3239 5.84572 16.1393 5.66152 15.912 5.66152L12.8836 5.66292C12.6559 5.66312 12.4717 5.84753 12.4717 6.07502C12.4717 6.30251 12.6563 6.48671 12.8836 6.48671Z" fill="#2D2D2D"/>
<path d="M4.3345 9.46267L15.9122 9.46127C16.1398 9.46127 16.3241 9.27682 16.3241 9.04937C16.3241 8.82193 16.1394 8.63748 15.9122 8.63748L4.3345 8.63888C4.10685 8.63888 3.92261 8.82333 3.92261 9.05078C3.92261 9.27822 4.10722 9.46267 4.3345 9.46267Z" fill="#2D2D2D"/>
<path d="M4.33454 12.3747L15.0936 12.3733C15.3213 12.3733 15.5055 12.1888 15.5055 11.9614C15.5055 11.7339 15.3209 11.5495 15.0936 11.5495L4.3345 11.5509C4.10685 11.5509 3.92261 11.7353 3.92261 11.9628C3.92261 12.1902 4.10726 12.3747 4.33454 12.3747Z" fill="#2D2D2D"/>
<path d="M11.1239 14.4627H4.3345C4.10685 14.4627 3.92261 14.6472 3.92261 14.8746C3.92261 15.1021 4.10685 15.2865 4.3345 15.2865H11.1239C11.3516 15.2865 11.5358 15.1021 11.5358 14.8746C11.5358 14.6472 11.3516 14.4627 11.1239 14.4627Z" fill="#2D2D2D"/>
<path d="M7.09707 18.3488L4.33409 18.3502C4.10681 18.3504 3.92261 18.5348 3.92261 18.7623C3.92261 18.9898 4.10722 19.174 4.3345 19.174L7.09748 19.1726C7.32476 19.1724 7.50896 18.9879 7.50896 18.7605C7.50896 18.533 7.32431 18.3488 7.09707 18.3488Z" fill="#2D2D2D"/>
<path d="M19.5581 15.3941C18.7247 15.1701 17.9094 15.4044 17.2622 16.0518L15.156 18.1567C14.9951 18.3176 14.9951 18.5784 15.156 18.7394C15.3169 18.9003 15.5776 18.9001 15.7385 18.7396L17.8446 16.6343C18.3965 16.0828 18.9657 16.0884 19.345 16.1898C19.9713 16.3575 20.5046 16.8907 20.6724 17.5168C20.7742 17.8971 20.7798 18.4663 20.2279 19.0179L17.2594 21.9878C16.7944 22.4535 16.1814 22.2644 15.8085 21.8917C15.6106 21.6938 15.4911 21.4547 15.4722 21.2181C15.4513 20.9601 15.5519 20.7181 15.7707 20.4991L18.5586 17.711C18.6737 17.5958 18.7662 17.604 18.8273 17.6203C18.95 17.6533 19.0642 17.7692 19.098 17.8961C19.1249 17.9962 19.098 18.0819 19.0139 18.1662L17.018 20.1621C16.8571 20.323 16.8571 20.5836 17.018 20.7445C17.1789 20.9055 17.4396 20.9054 17.6005 20.7445L19.5964 18.7486C19.8884 18.4566 19.997 18.0682 19.8937 17.6829C19.7834 17.2708 19.4484 16.9339 19.0405 16.8247C18.6592 16.7226 18.271 16.8338 17.9762 17.1286L15.1882 19.9167C14.6927 20.4121 14.6227 20.934 14.6508 21.2845C14.6858 21.7158 14.8902 22.1381 15.226 22.4742C15.5929 22.8412 16.1106 23.0834 16.6383 23.0834C17.0562 23.0834 17.4806 22.9317 17.8418 22.5703L20.8103 19.6006C21.4579 18.9533 21.6916 18.1376 21.468 17.3038C21.2266 16.4027 20.4591 15.6353 19.5581 15.3941Z" fill="#2D2D2D"/>
<path d="M19.7516 13.0872V1.64918C19.7516 0.739925 19.0118 0 18.1024 0H3.4134C3.31298 0 3.18937 0.048521 3.11733 0.119655L0.121467 3.09703C0.0507452 3.16742 0 3.28843 0 3.38926V22.4713C0 23.3805 0.739719 24.1205 1.64918 24.1205H14.1108C15.2009 25.005 16.5879 25.5374 18.098 25.5374C21.5926 25.5374 24.4361 22.694 24.4361 19.1991C24.4361 16.2771 22.4456 13.8174 19.7516 13.0872ZM2.99591 1.40629V2.15198C2.99591 2.60712 2.62545 2.97737 2.17051 2.97737H1.41201L2.99591 1.40629ZM1.64918 23.2967C1.19424 23.2967 0.823787 22.9265 0.823787 22.4713V3.80116H2.17047C3.07993 3.80116 3.81965 3.06123 3.81965 2.15198V0.823786H18.1024C18.5573 0.823786 18.9278 1.19404 18.9278 1.64918V12.9215C18.6555 12.8857 18.3799 12.8608 18.098 12.8608C14.6021 12.8608 11.7583 15.7042 11.7583 19.1991C11.7583 20.7612 12.3292 22.1906 13.2698 23.2967L1.64918 23.2967ZM18.098 24.7136C15.0566 24.7136 12.5821 22.2398 12.5821 19.1991C12.5821 16.1584 15.0566 13.6846 18.098 13.6846C21.1385 13.6846 23.6123 16.1584 23.6123 19.1991C23.6123 22.2398 21.1385 24.7136 18.098 24.7136Z" fill="#2D2D2D"/>
</svg>
