<svg width="20" height="26" viewBox="0 0 20 26" fill="none" xmlns="http://www.w3.org/2000/svg">
<path fill-rule="evenodd" clip-rule="evenodd" d="M9.57652 11.9706C8.25416 11.9706 7.18239 10.8989 7.18239 9.57652C7.18239 8.25416 8.25416 7.18239 9.57652 7.18239C10.8989 7.18239 11.9706 8.25416 11.9706 9.57652C11.9706 10.8989 10.8989 11.9706 9.57652 11.9706ZM9.57652 5.5863C7.37312 5.5863 5.5863 7.37232 5.5863 9.57652C5.5863 11.7807 7.37312 13.5667 9.57652 13.5667C11.7799 13.5667 13.5667 11.7807 13.5667 9.57652C13.5667 7.37232 11.7799 5.5863 9.57652 5.5863ZM9.57652 23.1433C8.24937 23.1504 1.59609 12.9131 1.59609 9.57652C1.59609 5.16972 5.16893 1.59609 9.57652 1.59609C13.9841 1.59609 17.5569 5.16972 17.5569 9.57652C17.5569 12.8684 10.8829 23.1504 9.57652 23.1433ZM9.57652 0C4.28789 0 0 4.28789 0 9.57652C0 13.5811 7.98442 25.5462 9.57652 25.5374C11.1439 25.5462 19.153 13.5268 19.153 9.57652C19.153 4.28789 14.8651 0 9.57652 0Z" fill="#2D2D2D"/>
</svg>
